<svg height="512pt" viewBox="0 -65 512 512" width="512pt" xmlns="http://www.w3.org/2000/svg"><path d="m87.414062 158.699219c-34.628906 0-59.058593-4.078125-73.132812-7.367188-8.367188-1.953125-14.28125-9.398437-14.28125-17.992187 0-9.300782 6.921875-17.128906 16.144531-18.320313 31.308594-4.03125 46.292969-18.757812 46.292969-18.757812h24.976562zm0 0" fill="#f26d33"/><path d="m67.640625 137.886719c-30.4375 0-52.996094-3.152344-67.5664062-6.148438-.046875.53125-.0742188 1.0625-.0742188 1.601563 0 8.59375 5.914062 16.039062 14.28125 17.992187 14.074219 3.289063 38.503906 7.367188 73.132812 7.367188v-20.8125zm0 0" fill="#e0501e"/><path d="m108.226562 233.625c0 81.613281 66.160157 147.773438 147.773438 147.773438h108.226562c81.613282 0 147.773438-66.160157 147.773438-147.773438v-106.144531c0-5.75-4.660156-10.410157-10.40625-10.410157-20.351562 0-39.554688 9.414063-52.023438 25.5-7.882812 10.175782-20.03125 16.128907-32.898437 16.128907h-308.445313zm0 0" fill="#ffe266"/><path d="m501.59375 117.074219c-11.863281 0-23.324219 3.21875-33.300781 9.070312v78.34375c0 71.265625-57.773438 129.039063-129.042969 129.039063h-126.957031c-31.492188 0-60.675781-9.855469-84.652344-26.644532 25.457031 44.515626 73.40625 74.515626 128.359375 74.515626h108.226562c81.613282 0 147.773438-66.160157 147.773438-147.769532v-106.148437c0-5.75-4.660156-10.40625-10.40625-10.40625zm0 0" fill="#fcd21d"/><path d="m442.257812 209.335938-9.363281 16.15625c-23.824219 41.105468-67.738281 66.410156-115.246093 66.410156h-42.917969c-25.289063 0-45.789063-20.5-45.789063-45.789063 0-25.289062 20.5-45.789062 45.789063-45.789062h162.335937c4.625 0 7.511719 5.011719 5.191406 9.011719zm0 0" fill="#f26d33"/><path d="m398.570312 200.324219-14.585937 25.164062c-23.214844 40.058594-65.507813 65.101563-111.617187 66.355469.78125.039062 1.570312.058594 2.363281.058594h42.917969c47.511718 0 91.425781-25.304688 115.246093-66.414063l9.367188-16.15625c2.316406-4-.570313-9.007812-5.191407-9.007812zm0 0" fill="#e0501e"/><path d="m251.835938 94.699219c0 52.300781-42.398438 94.699219-94.699219 94.699219s-94.699219-42.398438-94.699219-94.699219 42.398438-94.699219 94.699219-94.699219 94.699219 42.398438 94.699219 94.699219zm0 0" fill="#ffe266"/><path d="m207.132812 14.265625c9.039063 14.507813 14.265626 31.640625 14.265626 49.996094 0 52.300781-42.398438 94.699219-94.699219 94.699219-18.355469 0-35.484375-5.230469-49.996094-14.265626 16.71875 26.835938 46.488281 44.703126 80.433594 44.703126 52.300781 0 94.699219-42.398438 94.699219-94.699219 0-33.945313-17.863282-63.71875-44.703126-80.433594zm0 0" fill="#fcd21d"/><path d="m104.238281 73.328125c-1.402343 8.550781 5.882813 15.835937 14.433594 14.433594 5.171875-.851563 9.34375-5.023438 10.195313-10.195313 1.402343-8.550781-5.882813-15.839844-14.433594-14.433594-5.171875.851563-9.34375 5.023438-10.195313 10.195313zm0 0" fill="#57565c"/></svg>